<svg width="64" height="64" viewBox="0 0 64 64" fill="none" xmlns="http://www.w3.org/2000/svg">
  <rect x="4" y="4" width="56" height="56" rx="14" fill="#F5FBFF"/>
  <rect x="5" y="5" width="54" height="54" rx="13" stroke="#7DD3FC" stroke-width="2"/>
  <path d="M13 47V18H26.2C32.8 18 37 21.8 37 27.5C37 33.4 32.6 37.1 25.9 37.1H20.5V47H13ZM20.5 30.6H25.4C28.1 30.6 29.6 29.5 29.6 27.5C29.6 25.5 28.1 24.4 25.4 24.4H20.5V30.6Z" fill="#06192D"/>
  <path d="M30.4 50L39.9 15H45.2L35.7 50H30.4Z" fill="#0EA5E9"/>
  <path d="M43.2 47.5C38.2 47.5 34.5 46 31.9 43.7L35.7 38.8C37.7 40.6 40.3 41.8 43.1 41.8C45.5 41.8 46.9 41 46.9 39.5C46.9 37.9 45.2 37.4 42.1 36.3L39.7 35.5C35.9 34.1 32.9 31.9 32.9 27.7C32.9 22.8 37.3 19.1 43.4 19.1C47.1 19.1 50.5 20.4 53 22.6L49.5 27.5C47.6 26 45.7 25.2 43.5 25.2C41.4 25.2 40.2 26 40.2 27.4C40.2 28.9 42.1 29.4 45.2 30.5L47.6 31.3C52.1 32.8 54.4 35.2 54.4 39.3C54.4 44.2 50.2 47.5 43.2 47.5Z" fill="#0F5F8F"/>
</svg>